<svg data-v-fde0c5aa="" xmlns="http://www.w3.org/2000/svg" viewBox="0 0 300 300" class="iconAbove"><!----><defs data-v-fde0c5aa=""><!----></defs><rect data-v-fde0c5aa="" fill="transparent" x="0" y="0" width="300px" height="300px" class="logo-background-square"></rect><defs data-v-fde0c5aa=""><!----></defs><g data-v-fde0c5aa="" id="d1fc0e3d-05a9-419a-acd2-97dad8b4e85e" fill="#000000" transform="matrix(4.0530006830181105,0,0,4.0530006830181105,19.675759922408645,164.20810525923943)"><path d="M8.44 4.33L8.44 4.33L8.44 4.33Q8.86 4.33 9.30 4.25L9.30 4.25L9.30 4.25Q9.73 4.17 10.07 4.03L10.07 4.03L10.07 4.03Q10.05 4.93 9.61 5.37L9.61 5.37L9.61 5.37Q9.17 5.81 8.32 5.81L8.32 5.81L8.32 5.81Q7.91 5.81 7.41 5.74L7.41 5.74L7.41 5.74Q6.92 5.67 6.15 5.50L6.15 5.50L4.21 14.49L2.20 14.49L4.19 5.22L4.02 5.22L4.02 5.22Q2.66 5.22 2.02 5.91L2.02 5.91L2.02 5.91Q1.39 6.61 1.39 8.05L1.39 8.05L1.39 8.05Q1.39 8.32 1.42 8.51L1.42 8.51L1.42 8.51Q1.46 8.71 1.54 8.89L1.54 8.89L1.54 8.89Q1.57 8.95 1.57 8.97L1.57 8.97L1.57 8.97Q1.58 8.99 1.58 9.00L1.58 9.00L1.58 9.00Q0.80 9.00 0.44 8.67L0.44 8.67L0.44 8.67Q0.08 8.34 0.08 7.64L0.08 7.64L0.08 7.64Q0.08 5.98 1.34 4.99L1.34 4.99L1.34 4.99Q2.59 4.00 4.86 4.00L4.86 4.00L4.86 4.00Q5.32 4.00 5.75 4.04L5.75 4.04L5.75 4.04Q6.17 4.07 6.85 4.17L6.85 4.17L6.85 4.17Q7.43 4.27 7.76 4.30L7.76 4.30L7.76 4.30Q8.09 4.33 8.44 4.33ZM11.87 8.71L11.87 8.71L11.87 8.71Q11.87 9.87 10.92 10.73L10.92 10.73L10.92 10.73Q9.97 11.59 8.65 11.66L8.65 11.66L8.65 11.66Q8.64 11.90 8.63 12.02L8.63 12.02L8.63 12.02Q8.62 12.14 8.62 12.22L8.62 12.22L8.62 12.22Q8.62 12.87 8.84 13.13L8.84 13.13L8.84 13.13Q9.06 13.40 9.63 13.40L9.63 13.40L9.63 13.40Q10.29 13.40 10.84 13.10L10.84 13.10L10.84 13.10Q11.40 12.80 12.11 11.98L12.11 11.98L12.59 11.98L12.59 11.98Q11.77 13.30 10.82 13.94L10.82 13.94L10.82 13.94Q9.87 14.57 8.74 14.57L8.74 14.57L8.74 14.57Q7.66 14.57 7.11 14.01L7.11 14.01L7.11 14.01Q6.55 13.45 6.55 12.35L6.55 12.35L6.55 12.35Q6.55 11.55 6.80 10.65L6.80 10.65L6.80 10.65Q7.06 9.76 7.48 9.06L7.48 9.06L7.48 9.06Q7.99 8.22 8.71 7.79L8.71 7.79L8.71 7.79Q9.44 7.36 10.33 7.36L10.33 7.36L10.33 7.36Q11.10 7.36 11.49 7.69L11.49 7.69L11.49 7.69Q11.87 8.02 11.87 8.71ZM10.44 8.11L10.44 8.11L10.44 8.11Q9.97 8.11 9.48 8.95L9.48 8.95L9.48 8.95Q9.00 9.80 8.76 10.99L8.76 10.99L8.76 10.99Q9.58 10.93 10.19 10.24L10.19 10.24L10.19 10.24Q10.79 9.55 10.79 8.68L10.79 8.68L10.79 8.68Q10.79 8.39 10.71 8.25L10.71 8.25L10.71 8.25Q10.63 8.11 10.44 8.11ZM15.58 12.99L15.58 12.99L15.58 12.99Q15.58 12.74 15.64 12.36L15.64 12.36L15.64 12.36Q15.71 11.98 15.90 11.16L15.90 11.16L15.90 11.16Q16.10 10.36 16.16 10.01L16.16 10.01L16.16 10.01Q16.21 9.66 16.21 9.42L16.21 9.42L16.21 9.42Q16.21 9.07 16.09 8.89L16.09 8.89L16.09 8.89Q15.96 8.71 15.71 8.71L15.71 8.71L15.71 8.71Q15.37 8.71 15.09 9.05L15.09 9.05L15.09 9.05Q14.80 9.39 14.62 10.00L14.62 10.00L13.66 14.49L11.65 14.49L13.13 7.49L15.15 7.49L14.99 8.22L14.99 8.22Q15.34 7.83 15.75 7.63L15.75 7.63L15.75 7.63Q16.16 7.43 16.63 7.43L16.63 7.43L16.63 7.43Q17.37 7.43 17.78 7.84L17.78 7.84L17.78 7.84Q18.19 8.25 18.19 9.02L18.19 9.02L18.19 9.02Q18.19 9.34 18.11 9.78L18.11 9.78L18.11 9.78Q18.03 10.22 17.81 11.13L17.81 11.13L17.81 11.13Q17.63 11.84 17.57 12.14L17.57 12.14L17.57 12.14Q17.51 12.43 17.51 12.63L17.51 12.63L17.51 12.63Q17.51 12.92 17.65 13.07L17.65 13.07L17.65 13.07Q17.79 13.22 18.07 13.22L18.07 13.22L18.07 13.22Q18.42 13.22 18.68 12.98L18.68 12.98L18.68 12.98Q18.93 12.74 19.25 11.98L19.25 11.98L19.84 11.98L19.84 11.98Q19.39 13.29 18.75 13.93L18.75 13.93L18.75 13.93Q18.12 14.57 17.23 14.57L17.23 14.57L17.23 14.57Q16.45 14.57 16.02 14.15L16.02 14.15L16.02 14.15Q15.58 13.72 15.58 12.99ZM23.53 12.15L23.53 12.15L23.53 12.15Q23.53 12.32 23.52 12.45L23.52 12.45L23.52 12.45Q23.51 12.57 23.48 12.68L23.48 12.68L23.48 12.68Q23.76 12.52 24.02 12.33L24.02 12.33L24.02 12.33Q24.29 12.15 24.49 11.98L24.49 11.98L25.07 11.98L25.07 11.98Q24.64 12.49 24.12 12.92L24.12 12.92L24.12 12.92Q23.59 13.34 22.93 13.73L22.93 13.73L22.93 13.73Q22.55 14.14 21.97 14.36L21.97 14.36L21.97 14.36Q21.38 14.57 20.73 14.57L20.73 14.57L20.73 14.57Q19.80 14.57 19.24 14.06L19.24 14.06L19.24 14.06Q18.69 13.55 18.69 12.78L18.69 12.78L18.69 12.78Q18.69 12.35 18.90 11.99L18.90 11.99L18.90 11.99Q19.11 11.63 19.43 11.48L19.43 11.48L19.43 11.48Q19.91 10.63 20.32 9.65L20.32 9.65L20.32 9.65Q20.73 8.68 21.15 7.34L21.15 7.34L23.23 7.06L23.23 7.06Q23.27 8.11 23.32 8.97L23.32 8.97L23.32 8.97Q23.38 9.84 23.46 10.86L23.46 10.86L23.46 10.86Q23.51 11.45 23.52 11.69L23.52 11.69L23.52 11.69Q23.53 11.93 23.53 12.15ZM21.24 8.85L21.24 8.85L21.24 8.85Q21.06 9.42 20.80 10.04L20.80 10.04L20.80 10.04Q20.54 10.67 20.10 11.49L20.10 11.49L20.10 11.49Q20.26 11.56 20.34 11.69L20.34 11.69L20.34 11.69Q20.43 11.82 20.43 11.98L20.43 11.98L20.43 11.98Q20.43 12.25 20.24 12.46L20.24 12.46L20.24 12.46Q20.06 12.67 19.81 12.67L19.81 12.67L19.81 12.67Q19.67 12.67 19.57 12.62L19.57 12.62L19.57 12.62Q19.47 12.57 19.43 12.49L19.43 12.49L19.43 12.49Q19.43 13.01 19.64 13.24L19.64 13.24L19.64 13.24Q19.84 13.47 20.29 13.47L20.29 13.47L20.29 13.47Q20.86 13.47 21.18 13.13L21.18 13.13L21.18 13.13Q21.50 12.80 21.50 12.17L21.50 12.17L21.50 12.17Q21.50 11.97 21.49 11.77L21.49 11.77L21.49 11.77Q21.48 11.56 21.43 11.09L21.43 11.09L21.43 11.09Q21.36 10.43 21.32 9.93L21.32 9.93L21.32 9.93Q21.28 9.42 21.24 8.85ZM24.40 12.33L24.40 12.33L24.40 12.33Q24.40 11.54 24.66 10.64L24.66 10.64L24.66 10.64Q24.92 9.74 25.37 9.04L25.37 9.04L25.37 9.04Q25.89 8.22 26.61 7.79L26.61 7.79L26.61 7.79Q27.34 7.36 28.24 7.36L28.24 7.36L28.24 7.36Q29.13 7.36 29.58 7.92L29.58 7.92L29.58 7.92Q30.03 8.48 30.03 9.60L30.03 9.60L30.03 9.60Q30.06 9.62 30.09 9.63L30.09 9.63L30.09 9.63Q30.13 9.63 30.18 9.63L30.18 9.63L30.18 9.63Q30.62 9.63 31.22 9.39L31.22 9.39L31.22 9.39Q31.82 9.16 32.34 8.79L32.34 8.79L32.47 9.17L32.47 9.17Q32.07 9.59 31.42 9.90L31.42 9.90L31.42 9.90Q30.77 10.21 29.99 10.33L29.99 10.33L29.99 10.33Q29.82 12.22 28.90 13.38L28.90 13.38L28.90 13.38Q27.97 14.55 26.64 14.55L26.64 14.55L26.64 14.55Q25.55 14.55 24.98 13.99L24.98 13.99L24.98 13.99Q24.40 13.43 24.40 12.33ZM28.35 8.22L28.35 8.22L28.35 8.22Q27.68 8.22 27.08 9.58L27.08 9.58L27.08 9.58Q26.49 10.93 26.49 12.15L26.49 12.15L26.49 12.15Q26.49 12.81 26.63 13.05L26.63 13.05L26.63 13.05Q26.78 13.29 27.20 13.29L27.20 13.29L27.20 13.29Q27.72 13.29 28.19 12.45L28.19 12.45L28.19 12.45Q28.66 11.61 28.83 10.37L28.83 10.37L28.83 10.37Q28.63 10.33 28.54 10.19L28.54 10.19L28.54 10.19Q28.45 10.04 28.45 9.79L28.45 9.79L28.45 9.79Q28.45 9.52 28.56 9.32L28.56 9.32L28.56 9.32Q28.67 9.13 28.88 9.03L28.88 9.03L28.88 9.03Q28.85 8.58 28.73 8.40L28.73 8.40L28.73 8.40Q28.62 8.22 28.35 8.22ZM33.35 9.17L32.23 14.49L30.21 14.49L31.70 7.49L33.71 7.49L33.53 8.36L33.53 8.36Q34.15 7.84 34.50 7.67L34.50 7.67L34.50 7.67Q34.86 7.49 35.22 7.49L35.22 7.49L35.22 7.49Q35.66 7.49 35.92 7.79L35.92 7.79L35.92 7.79Q36.19 8.09 36.19 8.54L36.19 8.54L36.19 8.54Q36.19 8.97 35.91 9.27L35.91 9.27L35.91 9.27Q35.63 9.56 35.18 9.56L35.18 9.56L35.18 9.56Q34.94 9.56 34.81 9.45L34.81 9.45L34.81 9.45Q34.68 9.34 34.62 8.99L34.62 8.99L34.62 8.99Q34.58 8.76 34.52 8.70L34.52 8.70L34.52 8.70Q34.47 8.64 34.37 8.64L34.37 8.64L34.37 8.64Q34.13 8.64 33.92 8.74L33.92 8.74L33.92 8.74Q33.71 8.83 33.35 9.17L33.35 9.17ZM44.45 4.33L44.45 4.33L44.45 4.33Q44.87 4.33 45.30 4.25L45.30 4.25L45.30 4.25Q45.74 4.17 46.07 4.03L46.07 4.03L46.07 4.03Q46.06 4.93 45.62 5.37L45.62 5.37L45.62 5.37Q45.18 5.81 44.32 5.81L44.32 5.81L44.32 5.81Q43.92 5.81 43.42 5.74L43.42 5.74L43.42 5.74Q42.92 5.67 42.15 5.50L42.15 5.50L40.22 14.49L38.21 14.49L40.19 5.22L40.03 5.22L40.03 5.22Q38.67 5.22 38.03 5.91L38.03 5.91L38.03 5.91Q37.39 6.61 37.39 8.05L37.39 8.05L37.39 8.05Q37.39 8.32 37.43 8.51L37.43 8.51L37.43 8.51Q37.46 8.71 37.55 8.89L37.55 8.89L37.55 8.89Q37.58 8.95 37.58 8.97L37.58 8.97L37.58 8.97Q37.59 8.99 37.59 9.00L37.59 9.00L37.59 9.00Q36.81 9.00 36.45 8.67L36.45 8.67L36.45 8.67Q36.09 8.34 36.09 7.64L36.09 7.64L36.09 7.64Q36.09 5.98 37.35 4.99L37.35 4.99L37.35 4.99Q38.60 4.00 40.87 4.00L40.87 4.00L40.87 4.00Q41.33 4.00 41.76 4.04L41.76 4.04L41.76 4.04Q42.18 4.07 42.85 4.17L42.85 4.17L42.85 4.17Q43.44 4.27 43.77 4.30L43.77 4.30L43.77 4.30Q44.10 4.33 44.45 4.33ZM45.35 9.17L44.23 14.49L42.21 14.49L43.69 7.49L45.71 7.49L45.53 8.36L45.53 8.36Q46.14 7.84 46.50 7.67L46.50 7.67L46.50 7.67Q46.86 7.49 47.22 7.49L47.22 7.49L47.22 7.49Q47.66 7.49 47.92 7.79L47.92 7.79L47.92 7.79Q48.19 8.09 48.19 8.54L48.19 8.54L48.19 8.54Q48.19 8.97 47.91 9.27L47.91 9.27L47.91 9.27Q47.63 9.56 47.18 9.56L47.18 9.56L47.18 9.56Q46.94 9.56 46.81 9.45L46.81 9.45L46.81 9.45Q46.68 9.34 46.62 8.99L46.62 8.99L46.62 8.99Q46.58 8.76 46.52 8.70L46.52 8.70L46.52 8.70Q46.47 8.64 46.37 8.64L46.37 8.64L46.37 8.64Q46.13 8.64 45.92 8.74L45.92 8.74L45.92 8.74Q45.71 8.83 45.35 9.17L45.35 9.17ZM51.60 5.63L51.60 5.63L51.60 5.63Q51.60 6.09 51.28 6.41L51.28 6.41L51.28 6.41Q50.95 6.73 50.48 6.73L50.48 6.73L50.48 6.73Q50.02 6.73 49.70 6.41L49.70 6.41L49.70 6.41Q49.38 6.09 49.38 5.63L49.38 5.63L49.38 5.63Q49.38 5.17 49.70 4.84L49.70 4.84L49.70 4.84Q50.02 4.51 50.48 4.51L50.48 4.51L50.48 4.51Q50.95 4.51 51.28 4.84L51.28 4.84L51.28 4.84Q51.60 5.17 51.60 5.63ZM48.03 12.89L48.03 12.89L48.03 12.89Q48.03 12.71 48.06 12.48L48.06 12.48L48.06 12.48Q48.09 12.25 48.15 11.98L48.15 11.98L49.10 7.49L51.11 7.49L50.11 12.25L50.11 12.25Q50.08 12.38 50.06 12.48L50.06 12.48L50.06 12.48Q50.05 12.59 50.05 12.70L50.05 12.70L50.05 12.70Q50.05 12.98 50.18 13.10L50.18 13.10L50.18 13.10Q50.32 13.22 50.62 13.22L50.62 13.22L50.62 13.22Q51.02 13.22 51.37 12.87L51.37 12.87L51.37 12.87Q51.72 12.53 51.88 11.98L51.88 11.98L52.47 11.98L52.47 11.98Q52.02 13.26 51.27 13.92L51.27 13.92L51.27 13.92Q50.51 14.57 49.53 14.57L49.53 14.57L49.53 14.57Q48.83 14.57 48.43 14.13L48.43 14.13L48.43 14.13Q48.03 13.69 48.03 12.89ZM53.75 14.57L53.75 14.57L53.75 14.57Q52.81 14.57 52.30 14.11L52.30 14.11L52.30 14.11Q51.79 13.64 51.79 12.78L51.79 12.78L51.79 12.78Q51.79 12.59 51.81 12.39L51.81 12.39L51.81 12.39Q51.84 12.19 51.88 11.98L51.88 11.98L53.38 4.97L55.45 4.69L54.78 7.84L54.78 7.84Q55.12 7.63 55.38 7.54L55.38 7.54L55.38 7.54Q55.64 7.45 55.93 7.45L55.93 7.45L55.93 7.45Q56.76 7.45 57.17 8.04L57.17 8.04L57.17 8.04Q57.58 8.64 57.58 9.84L57.58 9.84L57.58 9.84Q57.58 10.67 57.33 11.54L57.33 11.54L57.33 11.54Q57.08 12.40 56.63 13.05L56.63 13.05L56.63 13.05Q56.11 13.80 55.38 14.19L55.38 14.19L55.38 14.19Q54.66 14.57 53.75 14.57ZM53.79 12.57L53.79 12.57L53.79 12.57Q53.79 12.89 53.98 13.05L53.98 13.05L53.98 13.05Q54.17 13.22 54.53 13.22L54.53 13.22L54.53 13.22Q55.16 13.22 55.66 12.11L55.66 12.11L55.66 12.11Q56.17 11.00 56.17 9.79L56.17 9.79L56.17 9.79Q56.17 9.20 55.97 8.82L55.97 8.82L55.97 8.82Q55.76 8.44 55.43 8.44L55.43 8.44L55.43 8.44Q55.20 8.44 54.95 8.51L54.95 8.51L54.95 8.51Q54.70 8.58 54.60 8.69L54.60 8.69L53.83 12.25L53.83 12.25Q53.82 12.33 53.80 12.42L53.80 12.42L53.80 12.42Q53.79 12.50 53.79 12.57ZM63.52 8.71L63.52 8.71L63.52 8.71Q63.52 9.87 62.57 10.73L62.57 10.73L62.57 10.73Q61.61 11.59 60.30 11.66L60.30 11.66L60.30 11.66Q60.28 11.90 60.28 12.02L60.28 12.02L60.28 12.02Q60.27 12.14 60.27 12.22L60.27 12.22L60.27 12.22Q60.27 12.87 60.49 13.13L60.49 13.13L60.49 13.13Q60.70 13.40 61.28 13.40L61.28 13.40L61.28 13.40Q61.94 13.40 62.49 13.10L62.49 13.10L62.49 13.10Q63.04 12.80 63.76 11.98L63.76 11.98L64.23 11.98L64.23 11.98Q63.42 13.30 62.47 13.94L62.47 13.94L62.47 13.94Q61.52 14.57 60.38 14.57L60.38 14.57L60.38 14.57Q59.30 14.57 58.75 14.01L58.75 14.01L58.75 14.01Q58.20 13.45 58.20 12.35L58.20 12.35L58.20 12.35Q58.20 11.55 58.45 10.65L58.45 10.65L58.45 10.65Q58.70 9.76 59.12 9.06L59.12 9.06L59.12 9.06Q59.64 8.22 60.36 7.79L60.36 7.79L60.36 7.79Q61.08 7.36 61.98 7.36L61.98 7.36L61.98 7.36Q62.75 7.36 63.13 7.69L63.13 7.69L63.13 7.69Q63.52 8.02 63.52 8.71ZM62.09 8.11L62.09 8.11L62.09 8.11Q61.61 8.11 61.13 8.95L61.13 8.95L61.13 8.95Q60.65 9.80 60.41 10.99L60.41 10.99L60.41 10.99Q61.22 10.93 61.83 10.24L61.83 10.24L61.83 10.24Q62.44 9.55 62.44 8.68L62.44 8.68L62.44 8.68Q62.44 8.39 62.36 8.25L62.36 8.25L62.36 8.25Q62.27 8.11 62.09 8.11Z"></path></g><defs data-v-fde0c5aa=""><linearGradient data-v-fde0c5aa="" gradientTransform="rotate(25)" id="e8d9b6d8-c0e2-4fd7-97ab-beae64e3be6d" x1="0%" y1="0%" x2="100%" y2="0%"><stop data-v-fde0c5aa="" offset="0%" stop-color="#E90DCA" stop-opacity="1"></stop><stop data-v-fde0c5aa="" offset="100%" stop-color="#1536F1" stop-opacity="1"></stop></linearGradient></defs><g data-v-fde0c5aa="" id="dcaeaaf6-6714-4922-86a4-dc6bb6716347" stroke="none" fill="url(#e8d9b6d8-c0e2-4fd7-97ab-beae64e3be6d)" transform="matrix(2.0526561577458846,0,0,2.0526561577458846,90.8157665854258,66.2105754662201)"><path clip-rule="evenodd" d="M49.611 16.958c0-1.65-1.227-3.564-2.725-4.254L31.559 5.647c-1.498-.69-3.951-.69-5.45 0l-15.331 7.057c-1.499.69-2.726 2.604-2.726 4.254v18.083c0 1.65 1.227 3.564 2.726 4.255l15.331 7.058c1.499.689 3.952.689 5.45 0l15.33-7.058c1.498-.69 2.725-2.604 2.725-4.255l-.003-18.083zm-5.26 2.518l-11.574 5.327c-.999.459-1.816 1.736-1.816 2.836V39.92c0 1.1-.9 2-2 2h-.262c-1.1 0-2-.9-2-2V27.638c0-1.101-.817-2.376-1.816-2.836l-11.571-5.325a2.006 2.006 0 0 1-.98-2.653l.109-.239a2.005 2.005 0 0 1 2.652-.98l11.921 5.488c.999.46 2.634.46 3.633 0l11.924-5.488a2.005 2.005 0 0 1 2.652.98l.109.239a2.006 2.006 0 0 1-.981 2.652z"></path></g><!----></svg>