<svg width="300" height="300" xmlns="http://www.w3.org/2000/svg" class="iconAbove"><defs><linearGradient y2="0%" x2="100%" y1="0%" x1="0%" id="a" gradientTransform="rotate(25)"><stop stop-color="#E90DCA" offset="0%"/><stop stop-color="#1536F1" offset="100%"/></linearGradient></defs><path fill="none" d="M-1-1h582v402H-1z"/><g><path class="logo-background-square" fill="transparent" d="M0 0h300v300H0z"/><path d="M53.98 29.142c0-1.65-1.228-3.564-2.726-4.254l-15.327-7.057c-1.498-.69-3.95-.69-5.45 0l-15.33 7.057c-1.5.69-2.727 2.604-2.727 4.254v18.083c0 1.65 1.227 3.564 2.726 4.255l15.331 7.058c1.5.69 3.952.69 5.45 0l15.33-7.058c1.498-.69 2.725-2.604 2.725-4.255l-.003-18.083zm-5.26 2.518l-11.575 5.327c-.999.46-1.816 1.736-1.816 2.836v12.281c0 1.1-.9 2-2 2h-.262c-1.1 0-2-.9-2-2V39.822c0-1.1-.817-2.376-1.816-2.836l-11.57-5.325a2.006 2.006 0 01-.98-2.653l.108-.239a2.005 2.005 0 012.652-.98l11.921 5.488c1 .46 2.634.46 3.633 0L46.94 27.79a2.005 2.005 0 012.652.98l.11.24a2.006 2.006 0 01-.982 2.651z" clip-rule="evenodd" transform="matrix(6.42335 .02249 -.02216 6.32813 -62.417 -91.802)" fill="url(#a)"/></g></svg>